<svg width="128" height="128" viewBox="0 0 128 128" fill="none" xmlns="http://www.w3.org/2000/svg">
<g clip-path="url(#clip0_1_8)">
<rect width="128" height="128" fill="white"/>
<rect width="128" height="128" rx="30" fill="black"/>
<path d="M63.6083 103.167L81.4292 56.1667H89.6542L107.475 103.167H99.25L95.0396 91.2208H76.0437L71.8333 103.167H63.6083ZM32.6667 91.4167L27.1833 85.9333L46.9625 66.1542C44.6778 63.8694 42.6052 61.2583 40.7448 58.3208C38.8844 55.3833 37.1708 52.0542 35.6042 48.3333H43.8292C45.1347 50.8792 46.4403 53.0986 47.7458 54.9917C49.0514 56.8847 50.618 58.7778 52.4458 60.6708C54.6 58.5167 56.8358 55.4976 59.1531 51.6135C61.4705 47.7295 63.2167 44.025 64.3917 40.5H20.9167V32.6667H48.3333V24.8333H56.1667V32.6667H83.5833V40.5H72.225C70.8542 45.2 68.7979 50.0306 66.0562 54.9917C63.3146 59.9528 60.6055 63.7389 57.9292 66.35L67.3292 75.9458L64.3917 83.975L52.4458 71.7354L32.6667 91.4167ZM78.4917 84.3667H92.5917L85.5417 64.3917L78.4917 84.3667Z" fill="white"/>
</g>
<defs>
<clipPath id="clip0_1_8">
<rect width="128" height="128" fill="white"/>
</clipPath>
</defs>
</svg>
