<svg width="24" height="24" viewBox="0 0 24 24" fill="none" xmlns="http://www.w3.org/2000/svg">
<path d="M12.1477 12L8.47378 8.3261C8.2245 8.07682 8.09985 7.76812 8.09985 7.4C8.09985 7.03188 8.2245 6.72318 8.47378 6.4739C8.72306 6.22462 9.03176 6.09998 9.39988 6.09998C9.768 6.09998 10.0767 6.22462 10.326 6.4739L14.9119 11.0598C15.0401 11.188 15.1368 11.3341 15.2021 11.4978C15.2673 11.6616 15.2999 11.829 15.2999 12C15.2999 12.171 15.2673 12.3384 15.2021 12.5022C15.1368 12.6659 15.0401 12.812 14.9119 12.9402L10.326 17.5261C10.0767 17.7754 9.768 17.9 9.39988 17.9C9.03176 17.9 8.72306 17.7754 8.47378 17.5261C8.2245 17.2768 8.09985 16.9681 8.09985 16.6C8.09985 16.2319 8.2245 15.9232 8.47378 15.6739L12.1477 12Z" fill="white"/>
</svg>
