<svg width="24" height="24" viewBox="0 0 24 24" fill="none" xmlns="http://www.w3.org/2000/svg">
<path d="M6.51635 16.2816L7.84025 17.6055C8.08952 17.8547 8.21415 18.1592 8.21415 18.519C8.21415 18.8788 8.08952 19.1917 7.84025 19.4576C7.58372 19.7236 7.2732 19.8565 6.9087 19.8565C6.54422 19.8565 6.229 19.7283 5.96305 19.4718L2.38805 15.8968C2.25978 15.7685 2.16304 15.6225 2.09782 15.4587C2.03261 15.2949 2 15.1275 2 14.9565C2 14.7855 2.03261 14.6181 2.09782 14.4543C2.16304 14.2906 2.25978 14.1446 2.38805 14.0163L5.98805 10.4304C6.254 10.1739 6.56505 10.0475 6.9212 10.0511C7.27737 10.0547 7.58372 10.1895 7.84025 10.4554C8.08952 10.712 8.21597 11.0207 8.2196 11.3815C8.22322 11.7424 8.09677 12.0511 7.84025 12.3076L6.51635 13.6315H11.6315C11.9996 13.6315 12.3125 13.7603 12.5701 14.018C12.8277 14.2756 12.9565 14.5884 12.9565 14.9565C12.9565 15.3247 12.8277 15.6375 12.5701 15.8951C12.3125 16.1527 11.9996 16.2816 11.6315 16.2816H6.51635ZM17.3402 10.225H12.225C11.8569 10.225 11.544 10.0962 11.2864 9.8386C11.0288 9.581 10.9 9.26814 10.9 8.90002C10.9 8.53189 11.0288 8.21902 11.2864 7.96142C11.544 7.70381 11.8569 7.575 12.225 7.575H17.3402L16.0163 6.2511C15.767 6.00183 15.6424 5.69731 15.6424 5.33752C15.6424 4.97772 15.767 4.66486 16.0163 4.39892C16.2728 4.13297 16.5834 4 16.9479 4C17.3123 4 17.6276 4.12826 17.8935 4.38477L21.4685 7.95977C21.5968 8.08804 21.6935 8.23406 21.7587 8.39782C21.8239 8.56161 21.8566 8.72901 21.8566 8.90002C21.8566 9.07102 21.8239 9.23842 21.7587 9.4022C21.6935 9.56597 21.5968 9.71198 21.4685 9.84025L17.8685 13.4261C17.6026 13.6826 17.2915 13.8091 16.9354 13.8055C16.5792 13.8018 16.2728 13.667 16.0163 13.4011C15.767 13.1446 15.6406 12.8359 15.637 12.475C15.6333 12.1141 15.7598 11.8054 16.0163 11.5489L17.3402 10.225Z" fill="white"/>
</svg>
